<svg width="31" height="31" viewBox="0 0 31 31" fill="none" xmlns="http://www.w3.org/2000/svg">
<path d="M0 1.09375C0 0.820246 0.108649 0.557943 0.302046 0.364546C0.495443 0.171149 0.757746 0.0625 1.03125 0.0625H4.125C4.35503 0.0625635 4.57844 0.139536 4.7597 0.281176C4.94095 0.422816 5.06964 0.620992 5.12531 0.844187L5.96063 4.1875H29.9062C30.0577 4.18764 30.2072 4.22112 30.3442 4.28557C30.4812 4.35002 30.6024 4.44386 30.6991 4.56041C30.7957 4.67696 30.8655 4.81337 30.9035 4.95994C30.9415 5.10652 30.9468 5.25966 30.9189 5.4085L27.8252 21.9085C27.781 22.1448 27.6555 22.3582 27.4706 22.5119C27.2857 22.6656 27.0529 22.7498 26.8125 22.75H8.25C8.00958 22.7498 7.77679 22.6656 7.59188 22.5119C7.40697 22.3582 7.28155 22.1448 7.23731 21.9085L4.14563 5.43944L3.32063 2.125H1.03125C0.757746 2.125 0.495443 2.01635 0.302046 1.82295C0.108649 1.62956 0 1.36725 0 1.09375ZM6.39787 6.25L9.10594 20.6875H25.9566L28.6646 6.25H6.39787ZM10.3125 22.75C9.21848 22.75 8.16927 23.1846 7.39568 23.9582C6.6221 24.7318 6.1875 25.781 6.1875 26.875C6.1875 27.969 6.6221 29.0182 7.39568 29.7918C8.16927 30.5654 9.21848 31 10.3125 31C11.4065 31 12.4557 30.5654 13.2293 29.7918C14.0029 29.0182 14.4375 27.969 14.4375 26.875C14.4375 25.781 14.0029 24.7318 13.2293 23.9582C12.4557 23.1846 11.4065 22.75 10.3125 22.75ZM24.75 22.75C23.656 22.75 22.6068 23.1846 21.8332 23.9582C21.0596 24.7318 20.625 25.781 20.625 26.875C20.625 27.969 21.0596 29.0182 21.8332 29.7918C22.6068 30.5654 23.656 31 24.75 31C25.844 31 26.8932 30.5654 27.6668 29.7918C28.4404 29.0182 28.875 27.969 28.875 26.875C28.875 25.781 28.4404 24.7318 27.6668 23.9582C26.8932 23.1846 25.844 22.75 24.75 22.75ZM10.3125 24.8125C10.8595 24.8125 11.3841 25.0298 11.7709 25.4166C12.1577 25.8034 12.375 26.328 12.375 26.875C12.375 27.422 12.1577 27.9466 11.7709 28.3334C11.3841 28.7202 10.8595 28.9375 10.3125 28.9375C9.76549 28.9375 9.24089 28.7202 8.85409 28.3334C8.4673 27.9466 8.25 27.422 8.25 26.875C8.25 26.328 8.4673 25.8034 8.85409 25.4166C9.24089 25.0298 9.76549 24.8125 10.3125 24.8125ZM24.75 24.8125C25.297 24.8125 25.8216 25.0298 26.2084 25.4166C26.5952 25.8034 26.8125 26.328 26.8125 26.875C26.8125 27.422 26.5952 27.9466 26.2084 28.3334C25.8216 28.7202 25.297 28.9375 24.75 28.9375C24.203 28.9375 23.6784 28.7202 23.2916 28.3334C22.9048 27.9466 22.6875 27.422 22.6875 26.875C22.6875 26.328 22.9048 25.8034 23.2916 25.4166C23.6784 25.0298 24.203 24.8125 24.75 24.8125Z" fill="#367AF5"/>
</svg>
