<svg width="21" height="21" viewBox="0 0 21 21" fill="none" xmlns="http://www.w3.org/2000/svg">
<path fill-rule="evenodd" clip-rule="evenodd" d="M12.6825 11.6875H13.3409L17.4992 15.8542L16.2575 17.0959L12.0909 12.9375V12.2792L11.8659 12.0459C10.9159 12.8625 9.68253 13.3542 8.34086 13.3542C5.34919 13.3542 2.92419 10.9292 2.92419 7.93754C2.92419 4.94587 5.34919 2.52087 8.34086 2.52087C11.3325 2.52087 13.7575 4.94587 13.7575 7.93754C13.7575 9.27921 13.2659 10.5125 12.4492 11.4625L12.6825 11.6875ZM4.59086 7.93754C4.59086 10.0125 6.26586 11.6875 8.34086 11.6875C10.4159 11.6875 12.0909 10.0125 12.0909 7.93754C12.0909 5.86254 10.4159 4.18754 8.34086 4.18754C6.26586 4.18754 4.59086 5.86254 4.59086 7.93754Z" fill="#95A1BB"/>
</svg>
