<svg width="324" height="318" viewBox="0 0 324 318" fill="none" xmlns="http://www.w3.org/2000/svg">
<path d="M0 0V18.7059H104.824V56.1176H152.471V74.8235H126.543L112.979 114.761L136.203 137.554L149.679 124.328L134.785 109.709L140.28 93.5294H183.719L189.215 109.709L174.321 124.328L187.797 137.554L211.021 114.761L197.456 74.8235H171.529V56.1176H219.176V18.7059H324V0H0Z" fill="#3D78FF" fill-opacity="0.8"/>
<path d="M104.824 205.765V159H28.5882V208.492C41.27 203.624 90.828 206.475 104.824 205.765Z" fill="#3D78FF" fill-opacity="0.8"/>
<path d="M123.882 159H200.118V205.765H123.882V159Z" fill="#3D78FF" fill-opacity="0.8"/>
<path d="M295.412 208.492V159H219.176V205.765C233.479 206.484 282.449 203.613 295.412 208.492Z" fill="#3D78FF" fill-opacity="0.8"/>
<path d="M276.353 224.471H47.6471C-14.9027 225.551 -15.0177 316.9 47.649 318C47.6471 318 276.353 318 276.353 318C302.626 318 324 297.021 324 271.235C324 245.449 302.626 224.471 276.353 224.471ZM57.1765 280.588H38.1176V261.882H57.1765V280.588ZM95.2941 280.588H76.2353V261.882H95.2941V280.588ZM133.412 280.588H114.353V261.882H133.412V280.588ZM171.529 280.588H152.471V261.882H171.529V280.588ZM209.647 280.588H190.588V261.882H209.647V280.588ZM247.765 280.588H228.706V261.882H247.765V280.588ZM285.882 280.588H266.824V261.882H285.882V280.588Z" fill="#3D78FF" fill-opacity="0.8"/>
</svg>
