<?xml version="1.0" encoding="iso-8859-1" ?>
<?xml-stylesheet type="text/css" href="../sass/style.css" ?>

<svg class="logo-svg" width="184" height="26" viewBox="0 0 184 26" fill="none" xmlns="http://www.w3.org/2000/svg">
<path d="M13.4985 7.50149C14.0574 6.94263 14.0629 6.02472 13.4183 5.56741C12.2191 4.7167 10.8125 4.18664 9.33314 4.04093C7.37609 3.84818 5.41275 4.33997 3.77765 5.43251C2.14255 6.52505 0.936857 8.15074 0.366007 10.0326C-0.204843 11.9144 -0.10553 13.936 0.647024 15.7528C1.39958 17.5696 2.75881 19.0693 4.49313 19.9963C6.22744 20.9233 8.22953 21.2203 10.1583 20.8367C12.087 20.453 13.823 19.4125 15.0706 17.8923C16.0136 16.7432 16.6335 15.3738 16.8798 13.9243C17.0123 13.1452 16.3593 12.5 15.569 12.5C14.7786 12.5 14.1558 13.1507 13.9573 13.9157C13.7533 14.7018 13.3805 15.4402 12.8582 16.0767C12.0307 17.085 10.8792 17.7751 9.59991 18.0296C8.3206 18.2841 6.99265 18.0871 5.8423 17.4722C4.69195 16.8573 3.79039 15.8626 3.29123 14.6575C2.79207 13.4525 2.7262 12.1116 3.10484 10.8634C3.48347 9.6152 4.28319 8.5369 5.36773 7.81223C6.45227 7.08757 7.75453 6.76137 9.05261 6.88922C9.87201 6.96992 10.6577 7.22839 11.3578 7.64003C12.0391 8.04063 12.9397 8.06034 13.4985 7.50149Z" fill="#367AF5"/>
<path d="M10.7723 10.2277C11.2747 9.7253 11.2792 8.89013 10.6555 8.54981C10.129 8.26254 9.54655 8.0813 8.94108 8.02167C7.90499 7.91962 6.86558 8.17998 5.99993 8.75839C5.13429 9.33679 4.49598 10.1974 4.19377 11.1937C3.89155 12.19 3.94413 13.2602 4.34254 14.2221C4.74095 15.1839 5.46055 15.9779 6.37871 16.4686C7.29688 16.9594 8.35681 17.1166 9.37791 16.9135C10.399 16.7104 11.3181 16.1595 11.9785 15.3548C12.3645 14.8845 12.6482 14.3445 12.8174 13.7691C13.0177 13.0874 12.424 12.5 11.7135 12.5C11.003 12.5 10.4532 13.1351 10.0133 13.693C10.0055 13.7029 9.99762 13.7127 9.98962 13.7225C9.70679 14.0671 9.31321 14.303 8.87595 14.39C8.43868 14.477 7.98479 14.4097 7.5916 14.1995C7.19842 13.9893 6.89026 13.6493 6.71965 13.2374C6.54904 12.8256 6.52652 12.3672 6.65594 11.9406C6.78536 11.514 7.0587 11.1454 7.4294 10.8977C7.80009 10.65 8.2452 10.5385 8.68888 10.5822C8.70143 10.5835 8.71396 10.5848 8.72646 10.5863C9.43204 10.6698 10.2699 10.7301 10.7723 10.2277Z" fill="white"/>
<path d="M23.72 17.36V4.616H27.68V16.088C27.68 16.36 27.736 16.552 27.848 16.664C27.976 16.776 28.192 16.832 28.496 16.832L28.184 20.24H26.864C25.808 20.24 25.016 20.024 24.488 19.592C23.976 19.144 23.72 18.4 23.72 17.36ZM33.3776 20H29.4176V8.624H33.3776V20ZM29.7296 7.712C29.3936 7.424 29.2256 6.96 29.2256 6.32C29.2256 5.68 29.3936 5.208 29.7296 4.904C30.0656 4.6 30.6176 4.448 31.3856 4.448C32.1536 4.448 32.7056 4.6 33.0416 4.904C33.3776 5.208 33.5456 5.68 33.5456 6.32C33.5456 6.944 33.3776 7.408 33.0416 7.712C32.7056 8 32.1536 8.144 31.3856 8.144C30.6176 8.144 30.0656 8 29.7296 7.712ZM40.6117 23.288V19.64H40.5157C39.9557 20.04 39.3477 20.24 38.6917 20.24C37.2517 20.24 36.2357 19.736 35.6437 18.728C35.0517 17.704 34.7557 16.216 34.7557 14.264C34.7557 12.296 35.0837 10.8 35.7397 9.776C36.3957 8.736 37.3077 8.216 38.4757 8.216C39.6437 8.216 40.4757 8.552 40.9717 9.224H41.0917L41.3317 8.504H44.6437V23.288H40.6117ZM39.6277 11.6C39.2917 11.6 39.0677 11.808 38.9557 12.224C38.8437 12.624 38.7877 13.208 38.7877 13.976C38.7877 14.728 38.7957 15.24 38.8117 15.512C38.8277 15.784 38.8597 16.064 38.9077 16.352C38.9717 16.624 39.0597 16.816 39.1717 16.928C39.2997 17.024 39.4997 17.072 39.7717 17.072C40.0597 17.072 40.3557 17 40.6597 16.856V11.888C40.3237 11.696 39.9797 11.6 39.6277 11.6ZM48.9354 20.24C47.0314 20.24 46.0794 19.184 46.0794 17.072V8.504H50.1594V16.088C50.1594 16.488 50.3354 16.688 50.6874 16.688C51.1354 16.688 51.5114 16.576 51.8154 16.352V8.504H55.8474V19.952H52.0314V19.112H51.9354C51.0554 19.864 50.0554 20.24 48.9354 20.24ZM61.3385 20H57.3785V8.624H61.3385V20ZM57.6905 7.712C57.3545 7.424 57.1865 6.96 57.1865 6.32C57.1865 5.68 57.3545 5.208 57.6905 4.904C58.0265 4.6 58.5785 4.448 59.3465 4.448C60.1145 4.448 60.6665 4.6 61.0025 4.904C61.3385 5.208 61.5065 5.68 61.5065 6.32C61.5065 6.944 61.3385 7.408 61.0025 7.712C60.6665 8 60.1145 8.144 59.3465 8.144C58.5785 8.144 58.0265 8 57.6905 7.712ZM73.0366 20.144L71.4286 20.24C70.1966 20.24 69.4446 19.832 69.1726 19.016H69.0526C68.5246 19.832 67.7166 20.24 66.6286 20.24C65.1886 20.24 64.1726 19.736 63.5806 18.728C63.0046 17.72 62.7166 16.224 62.7166 14.24C62.7166 12.24 63.0446 10.736 63.7006 9.728C64.3566 8.72 65.3006 8.216 66.5326 8.216C67.3806 8.216 68.0366 8.416 68.5006 8.816V4.616H72.5086V16.472C72.5086 16.776 72.5726 16.984 72.7006 17.096C72.8286 17.192 73.0606 17.24 73.3966 17.24L73.0366 20.144ZM67.5886 11.6C67.2526 11.6 67.0286 11.808 66.9166 12.224C66.8046 12.624 66.7486 13.208 66.7486 13.976C66.7486 14.728 66.7566 15.24 66.7726 15.512C66.7886 15.784 66.8206 16.064 66.8686 16.352C66.9326 16.624 67.0206 16.816 67.1326 16.928C67.2606 17.024 67.4606 17.072 67.7326 17.072C68.0206 17.072 68.3166 17 68.6206 16.856V11.888C68.2846 11.696 67.9406 11.6 67.5886 11.6ZM82.9621 11.504L82.8421 16.472C82.8421 16.776 82.9141 16.984 83.0581 17.096C83.2181 17.192 83.4821 17.24 83.8501 17.24L83.4901 20.144C82.5621 20.208 82.0501 20.24 81.9541 20.24C80.7701 20.24 80.0181 19.832 79.6981 19.016H79.5781C78.9861 19.832 78.0741 20.24 76.8421 20.24C75.8981 20.24 75.1701 19.936 74.6581 19.328C74.1621 18.72 73.9141 17.888 73.9141 16.832C73.9141 15.504 74.3221 14.584 75.1381 14.072C75.9701 13.56 77.2741 13.224 79.0501 13.064V12.488C79.0501 12.04 78.8261 11.816 78.3781 11.816C77.6101 11.816 76.4101 12.048 74.7781 12.512L74.1781 9.008C76.2261 8.48 77.9301 8.216 79.2901 8.216C80.6501 8.216 81.6021 8.48 82.1461 9.008C82.6901 9.536 82.9621 10.368 82.9621 11.504ZM78.3301 17.432C78.9221 17.432 79.2181 17.12 79.2181 16.496V15.32C78.6261 15.4 78.2021 15.528 77.9461 15.704C77.7061 15.864 77.5861 16.144 77.5861 16.544C77.5861 17.136 77.8341 17.432 78.3301 17.432ZM91.2313 20.024C90.0473 20.168 89.0153 20.24 88.1353 20.24C87.2713 20.24 86.5913 20.016 86.0953 19.568C85.6153 19.104 85.3753 18.312 85.3753 17.192V11.624H84.2233V8.648H85.5673L85.7833 6.44H89.4073V8.648H91.5433L91.3753 11.624H89.3833V16.4C89.3833 16.736 89.5433 16.904 89.8633 16.904C89.8953 16.904 90.3913 16.88 91.3513 16.832L91.2313 20.024ZM96.4244 20H92.4644V8.624H96.4244V20ZM92.7764 7.712C92.4404 7.424 92.2724 6.96 92.2724 6.32C92.2724 5.68 92.4404 5.208 92.7764 4.904C93.1124 4.6 93.6644 4.448 94.4324 4.448C95.2004 4.448 95.7524 4.6 96.0884 4.904C96.4244 5.208 96.5924 5.68 96.5924 6.32C96.5924 6.944 96.4244 7.408 96.0884 7.712C95.7524 8 95.2004 8.144 94.4324 8.144C93.6644 8.144 93.1124 8 92.7764 7.712ZM97.7546 14.216C97.7546 12.104 98.1546 10.576 98.9546 9.632C99.7706 8.688 101.035 8.216 102.747 8.216C104.475 8.216 105.731 8.68 106.515 9.608C107.299 10.536 107.691 12.064 107.691 14.192C107.691 16.304 107.307 17.84 106.539 18.8C105.771 19.76 104.515 20.24 102.771 20.24C101.027 20.24 99.7546 19.76 98.9546 18.8C98.1546 17.84 97.7546 16.312 97.7546 14.216ZM103.515 11.936C103.419 11.616 103.163 11.456 102.747 11.456C102.331 11.456 102.067 11.616 101.955 11.936C101.843 12.256 101.787 12.928 101.787 13.952V14.528C101.787 15.664 101.843 16.4 101.955 16.736C102.067 17.072 102.323 17.24 102.723 17.24C103.139 17.24 103.403 17.072 103.515 16.736C103.627 16.4 103.683 15.712 103.683 14.672V13.976C103.683 12.936 103.627 12.256 103.515 11.936ZM112.947 9.344C113.827 8.592 114.795 8.216 115.851 8.216C116.907 8.216 117.643 8.464 118.059 8.96C118.491 9.44 118.707 10.168 118.707 11.144V20H114.627V12.512C114.627 12.112 114.451 11.912 114.099 11.912C113.651 11.912 113.275 12.024 112.971 12.248V20H108.939V8.504H112.611L112.851 9.344H112.947Z" fill="white"/>
<path d="M129.886 9.344C130.766 8.592 131.734 8.216 132.79 8.216C133.846 8.216 134.582 8.464 134.998 8.96C135.43 9.44 135.646 10.168 135.646 11.144V20H131.566V12.512C131.566 12.112 131.39 11.912 131.038 11.912C130.59 11.912 130.214 12.024 129.91 12.248V20H125.83V12.512C125.83 12.112 125.654 11.912 125.302 11.912C124.854 11.912 124.478 12.024 124.174 12.248V20H120.142V8.504H123.814L124.054 9.344H124.15C125.03 8.592 126.07 8.216 127.27 8.216C128.486 8.216 129.278 8.664 129.646 9.56L129.886 9.344ZM145.751 11.504L145.631 16.472C145.631 16.776 145.703 16.984 145.847 17.096C146.007 17.192 146.271 17.24 146.639 17.24L146.279 20.144C145.351 20.208 144.839 20.24 144.743 20.24C143.559 20.24 142.807 19.832 142.487 19.016H142.367C141.775 19.832 140.863 20.24 139.631 20.24C138.687 20.24 137.959 19.936 137.447 19.328C136.951 18.72 136.703 17.888 136.703 16.832C136.703 15.504 137.111 14.584 137.927 14.072C138.759 13.56 140.063 13.224 141.839 13.064V12.488C141.839 12.04 141.615 11.816 141.167 11.816C140.399 11.816 139.199 12.048 137.567 12.512L136.967 9.008C139.015 8.48 140.719 8.216 142.079 8.216C143.439 8.216 144.391 8.48 144.935 9.008C145.479 9.536 145.751 10.368 145.751 11.504ZM141.119 17.432C141.711 17.432 142.007 17.12 142.007 16.496V15.32C141.415 15.4 140.991 15.528 140.735 15.704C140.495 15.864 140.375 16.144 140.375 16.544C140.375 17.136 140.623 17.432 141.119 17.432ZM151.524 13.544V20H147.54V8.504H151.044L151.284 9.2H151.38C151.748 8.784 152.116 8.52 152.484 8.408C152.868 8.28 153.484 8.216 154.332 8.216L154.164 12.056H153.06C152.436 12.056 152.02 12.152 151.812 12.344C151.62 12.536 151.524 12.936 151.524 13.544ZM164.976 20H160.536L159.072 15.584H158.976V20H155.064V4.616H159.024V13.088H159.12L160.872 8.504H165.072L162.648 14.24L164.976 20ZM170.481 11.648C170.065 11.648 169.793 11.792 169.665 12.08C169.537 12.352 169.473 12.776 169.473 13.352H171.561V12.776C171.561 12.024 171.201 11.648 170.481 11.648ZM170.577 8.216C172.225 8.216 173.401 8.616 174.105 9.416C174.825 10.2 175.185 11.328 175.185 12.8C175.185 12.992 175.129 13.856 175.017 15.392H169.545C169.545 16.592 170.097 17.192 171.201 17.192C171.729 17.192 172.761 17.008 174.297 16.64L174.633 19.616C173.289 20.032 171.945 20.24 170.601 20.24C168.953 20.24 167.689 19.704 166.809 18.632C165.929 17.544 165.489 16.072 165.489 14.216C165.489 10.216 167.185 8.216 170.577 8.216ZM182.778 20.024C181.594 20.168 180.562 20.24 179.682 20.24C178.818 20.24 178.138 20.016 177.642 19.568C177.162 19.104 176.922 18.312 176.922 17.192V11.624H175.77V8.648H177.114L177.33 6.44H180.954V8.648H183.09L182.922 11.624H180.93V16.4C180.93 16.736 181.09 16.904 181.41 16.904C181.442 16.904 181.938 16.88 182.898 16.832L182.778 20.024Z" fill="#367AF5"/>
</svg>
